<mxfile host="app.diagrams.net" agent="Mozilla/5.0 (Windows NT 10.0; Win64; x64) AppleWebKit/537.36 (KHTML, like Gecko) Chrome/127.0.0.0 Safari/537.36" version="24.7.5">
  <diagram name="Страница — 1" id="HaqgfAQ79ETV31ubkLZQ">
    <mxGraphModel dx="2169" dy="605" grid="1" gridSize="10" guides="1" tooltips="1" connect="1" arrows="1" fold="1" page="1" pageScale="1" pageWidth="1169" pageHeight="827" math="0" shadow="0">
      <root>
        <mxCell id="0" />
        <mxCell id="1" parent="0" />
        <mxCell id="_wxhi4WGu2Ms2lGMGAVr-1" value="Pool" style="swimlane;html=1;childLayout=stackLayout;resizeParent=1;resizeParentMax=0;horizontal=1;startSize=20;horizontalStack=0;whiteSpace=wrap;" vertex="1" parent="1">
          <mxGeometry x="-1140" y="10" width="1120" height="480" as="geometry" />
        </mxCell>
        <mxCell id="_wxhi4WGu2Ms2lGMGAVr-2" value="Lane 1" style="swimlane;html=1;startSize=20;horizontal=0;" vertex="1" parent="_wxhi4WGu2Ms2lGMGAVr-1">
          <mxGeometry y="20" width="1120" height="220" as="geometry" />
        </mxCell>
        <mxCell id="_wxhi4WGu2Ms2lGMGAVr-6" value="" style="edgeStyle=elbowEdgeStyle;fontSize=12;html=1;endArrow=blockThin;endFill=1;rounded=0;" edge="1" parent="_wxhi4WGu2Ms2lGMGAVr-2">
          <mxGeometry width="160" relative="1" as="geometry">
            <mxPoint x="130" y="110" as="sourcePoint" />
            <mxPoint x="290" y="110" as="targetPoint" />
          </mxGeometry>
        </mxCell>
        <mxCell id="_wxhi4WGu2Ms2lGMGAVr-3" value="Lane 2" style="swimlane;html=1;startSize=20;horizontal=0;" vertex="1" parent="_wxhi4WGu2Ms2lGMGAVr-1">
          <mxGeometry y="240" width="1120" height="120" as="geometry" />
        </mxCell>
        <mxCell id="_wxhi4WGu2Ms2lGMGAVr-4" value="Lane 3" style="swimlane;html=1;startSize=20;horizontal=0;" vertex="1" parent="_wxhi4WGu2Ms2lGMGAVr-1">
          <mxGeometry y="360" width="1120" height="120" as="geometry" />
        </mxCell>
      </root>
    </mxGraphModel>
  </diagram>
</mxfile>
